# xmcd CD database file
#
# Track frame offsets:
#	150
#	19734
#	35671
#	52874
#	72512
#	98379
#	111695
#	127313
#	149705
#	170376
#	186533
#	202401
#	220533
#	240067
#
# Disc length: 3368 seconds
#
# Revision: 0
# Processed by: cddbd v1.5PL3 Copyright (c) Steve Scherf et al.
# Submitted via: CDex 1.51
#
DISCID=d70d260e
DTITLE=Shane and The Money Makers - Leopard Skin Print
DYEAR=2004
DGENRE=Blues
TTITLE0=Cryin' Shame
TTITLE1=Leopard Skin Print
TTITLE2=100% Chance of Rain
TTITLE3=Blood on the Floor
TTITLE4=Lay it Down
TTITLE5=Mr. Pawn Man
TTITLE6=Smile
TTITLE7=I'd Rather Hear a Lie
TTITLE8=The Dancer
TTITLE9=Toy With Me
TTITLE10=You Ain't Mine
TTITLE11=Deep End
TTITLE12=$40 Gigs $50 Tabs
TTITLE13=Song for Tomorrow
EXTD=YEAR: 2004
EXTT0=
EXTT1=
EXTT2=
EXTT3=
EXTT4=
EXTT5=
EXTT6=
EXTT7=
EXTT8=
EXTT9=
EXTT10=
EXTT11=
EXTT12=
EXTT13=
PLAYORDER=
